<svg width="81" height="44" viewBox="0 0 81 44" fill="none" xmlns="http://www.w3.org/2000/svg">
<path fill-rule="evenodd" clip-rule="evenodd" d="M71.8339 11.4215L71.8365 11.4196L71.8432 11.4147L71.8489 11.4106C72.2076 11.1488 72.5269 10.9158 72.7965 10.7195C73.6602 10.0908 74.8385 9.11944 75.6121 8.48165L75.6125 8.48133C75.7878 8.33684 75.9423 8.20948 76.0676 8.10712C76.5925 7.6785 78.3565 5.88682 78.8231 5.29301C78.8758 5.22312 78.9312 5.14627 78.9878 5.06369C78.7373 5.24618 78.4713 5.43675 78.1911 5.63469C76.5952 6.76195 74.5199 8.14127 72.1991 9.65055L72.1901 9.65635L72.181 9.66177L52.4485 21.3302L52.439 21.3358L52.4292 21.341L47.5265 23.9558L47.5194 23.9596L47.5121 23.9632L41.5354 26.9055L41.5214 26.9124L41.507 26.9184L32.1217 30.8326L32.1038 30.8401L32.0854 30.8461L13.2387 37.045C13.9571 37.1353 15.0108 36.8884 15.7663 36.6995L22.0834 43.7522C22.142 43.8177 22.2365 43.8372 22.3163 43.8003L24.5098 42.7862C24.9594 42.5784 25.1891 42.0727 25.0498 41.5974L23.0582 34.7998C23.9231 34.6134 24.6346 34.447 25.3359 34.2829C26.1027 34.1035 26.8572 33.927 27.7867 33.7304C29.5661 33.354 33.0232 32.2705 35.4978 31.3578C37.8189 30.5016 42.5703 28.1202 44.1295 27.3387L44.1296 27.3387L44.3952 27.2057C46.0189 26.3938 48.408 25.2838 49.2195 25.2838C50.4058 25.2838 56.0843 29.3494 57.248 30.2517C58.2916 31.0608 64.6171 37.0086 67.5717 39.9494C67.6693 40.0465 67.818 40.0627 67.9361 39.9919L70.2615 38.5966C70.7096 38.3278 70.8752 37.7593 70.6415 37.2919L65.743 27.495L65.7579 27.4865L63.1728 23.3035L63.1419 23.3196L61.1979 19.1476C61.1553 19.0562 61.1847 18.9493 61.2698 18.8951C63.7938 17.2894 69.0146 13.4791 71.8339 11.4215ZM12.3536 36.2835C12.2444 35.7588 12.4544 35.1245 12.6167 34.7998L0.370311 30.9325C0.215085 30.8835 0.180312 30.6795 0.310537 30.5818L2.33568 29.063C2.54099 28.909 2.79764 28.8398 3.05252 28.8698L13.9448 30.1513L11.3661 24.3492C11.3227 24.2515 11.3638 24.1369 11.4594 24.0891L14.3053 22.6662C14.9091 22.3643 15.6225 22.3886 16.2126 22.7164C18.9182 24.2191 22.7589 26.0844 23.705 26.0844C24.9751 26.0844 35.4969 19.5442 36.9954 18.3915C37.083 18.3242 37.0795 18.2048 36.999 18.1292C36.1923 17.3718 35.1764 16.8033 34.0707 16.1845C33.3629 15.7884 32.6184 15.3717 31.8684 14.8717C31.1098 14.6188 27.5649 13.204 23.3656 11.528C19.0855 9.81979 14.1258 7.84029 10.7437 6.5433C10.4803 6.44228 10.4918 6.0673 10.7595 5.97808L13.4409 5.08425C13.7711 4.97418 14.1178 4.9511 14.4593 5.01849C22.8489 6.67419 38.9552 9.34893 42.0708 9.72672C42.2943 9.77943 42.5943 9.84934 42.9482 9.92979C43.7392 10.1096 44.7998 10.3423 45.8777 10.5535C46.9548 10.7645 48.0525 10.9547 48.9162 11.0487C49.159 11.0751 49.3851 11.0942 49.5881 11.1038L49.5796 11.1101L49.9781 11.1332L50.0925 11.1274L50.1057 11.1579L50.1885 11.1224L50.3883 11.1121C50.4143 11.1108 50.4397 11.1044 50.4633 11.0933L65.1337 4.1791L71.4299 1.22981C71.9303 1.05013 73.2183 0.640372 74.3674 0.43873C75.5165 0.237088 76.84 0.354713 77.3581 0.43873C77.5029 0.467247 77.6416 0.492453 77.774 0.516508C78.1392 0.582837 78.4561 0.640415 78.7185 0.734526C78.3709 0.887197 77.9598 1.07277 77.7402 1.33059C77.2895 1.85955 78.1895 2.30367 78.1895 2.30367C78.1895 2.30367 78.512 2.40988 78.7854 2.21525L79.7072 1.592C79.8301 1.83629 79.975 2.3306 79.8896 3.00435C79.8846 3.04356 79.8786 3.08312 79.8715 3.12296C79.7825 3.19724 79.6862 3.27576 79.5827 3.35848C79.069 3.76878 78.4042 4.25982 77.6142 4.8179C76.0365 5.93228 73.9776 7.30102 71.6628 8.8064L51.9489 20.4639L47.0631 23.0697L41.1077 26.0015L31.7546 29.9022L12.3536 36.2835ZM50.7136 10.1182C50.9022 9.79935 50.9021 9.39324 50.678 9.07923C50.0314 8.1731 49.1629 7.18905 48.3657 7.18905C48.1503 7.18905 47.849 7.27957 47.4945 7.42671C47.6375 7.46329 47.7817 7.50759 47.9266 7.56042C48.9437 7.93153 49.9536 8.71114 50.7136 10.1182ZM45.6595 8.35234C46.1669 8.24707 46.865 8.2376 47.5838 8.49985C48.3983 8.79702 49.2782 9.45705 49.9457 10.8102C49.6842 10.8154 49.3444 10.7936 48.9487 10.7505C48.0978 10.6578 47.0101 10.4696 45.9354 10.2591C44.892 10.0547 43.8642 9.8299 43.0827 9.6527C43.6725 9.44269 44.5078 8.98421 45.3554 8.51904C45.4568 8.46343 45.5583 8.40772 45.6595 8.35234ZM67.3541 22.6834C68.0506 23.3787 68.5996 24.3805 68.7882 25.7664C69.2801 25.479 69.5027 24.8843 69.3186 24.3436L69.2925 24.2671C68.9729 23.3286 68.4257 22.4838 67.6999 21.8085L67.6257 21.7394C67.3161 21.4514 66.8589 21.3892 66.4836 21.5841L66.0825 21.7924C66.5151 21.9949 66.9549 22.2848 67.3541 22.6834ZM66.6476 23.3911C67.2308 23.9733 67.736 24.8886 67.8395 26.305L66.019 27.3383L63.4398 23.1648L64.844 22.4356C65.375 22.5305 66.0651 22.8095 66.6476 23.3911ZM1.8753 30.3164L2.76663 29.6258C2.85241 29.5593 2.9615 29.5306 3.06889 29.5461L13.8777 31.1098L12.9735 33.6227L6.26324 31.8582L1.94463 30.6673C1.78584 30.6235 1.74509 30.4173 1.8753 30.3164ZM23.7936 42.2575L22.6034 42.7808C22.5225 42.8164 22.4278 42.7946 22.3705 42.7272L17.2314 36.6775L22.1428 35.1087L24.1254 41.5313C24.2153 41.8225 24.0726 42.1348 23.7936 42.2575ZM15.9981 32.1824L12.9176 24.9911C12.8745 24.8905 12.9202 24.774 13.0202 24.7296L15.1066 23.8018C15.2668 23.7305 15.4501 23.7329 15.6083 23.8083L24.2309 27.9138L15.9981 32.1824ZM68.5465 38.1572C68.3064 38.3035 68.0617 38.4526 67.7949 38.6064C67.7141 38.653 67.6139 38.6388 67.5507 38.5702C65.2337 36.0532 60.0619 31.0179 59.2334 30.2985C58.2044 29.4049 52.7384 25.0942 50.5671 23.9317L59.4915 19.3922C60.0295 20.3467 60.6801 21.5158 61.3923 22.7956L61.3926 22.7961L61.3929 22.7967C62.8567 25.4268 64.5804 28.5242 66.1212 31.1864C67.8664 34.2017 69.1913 36.6298 69.5677 37.3367C69.619 37.4329 69.5814 37.5503 69.4861 37.6031C69.1557 37.7861 68.8549 37.9693 68.5467 38.1571L68.5465 38.1572ZM12.64 5.99423C13.0657 5.81233 13.5985 5.59547 13.9268 5.56224C14.0072 5.5541 14.84 5.74065 16.2177 6.04928L16.2177 6.04929C19.141 6.70415 24.5176 7.90859 30.3661 8.96894L34.7332 9.7308C35.7125 9.8986 36.7147 10.0692 37.7106 10.2387L37.7194 10.2402L37.7199 10.2402L37.7203 10.2403L37.7207 10.2404C41.2324 10.838 44.664 11.4221 46.7304 11.8237L37.794 16.7222C36.1363 15.5532 33.3909 14.1917 32.7236 13.8766C32.0759 13.5709 18.7777 8.42008 12.6554 6.39148C12.4762 6.33208 12.4663 6.06842 12.64 5.99423Z" fill="#6D6D6D"/>
</svg>
