<svg width="120" height="66" viewBox="0 0 120 66" fill="none" xmlns="http://www.w3.org/2000/svg">
<path fill-rule="evenodd" clip-rule="evenodd" d="M107.538 17.28C108.084 16.8847 108.57 16.533 108.979 16.2375C110.272 15.3036 112.036 13.8608 113.194 12.9137L113.194 12.9136L113.195 12.9124L113.197 12.911L113.199 12.9094L113.201 12.9076L113.205 12.9045L113.207 12.9027C113.464 12.6926 113.691 12.5072 113.875 12.3578C114.661 11.7212 117.301 9.06037 118 8.1785C118.191 7.92673 118.405 7.61417 118.614 7.26678C118.097 7.64767 117.526 8.05612 116.909 8.48885C114.524 10.1601 111.421 12.2065 107.948 14.4476L107.939 14.4533L107.93 14.4587L78.3949 31.7878L78.3854 31.7933L78.3757 31.7985L71.0374 35.6817L71.0303 35.6855L71.023 35.6891L62.0773 40.0588L62.0633 40.0656L62.049 40.0715L48.0013 45.8845L47.9836 45.8919L47.9653 45.8978L19.367 55.2309C20.4013 55.5859 22.3086 55.1456 23.6179 54.8209L33.1223 65.3497C33.1809 65.4146 33.2748 65.4339 33.3542 65.3975L37.0885 63.6845C37.5405 63.4772 37.7714 62.9693 37.6306 62.4924L34.5322 51.9997C35.8262 51.7229 36.8908 51.4759 37.9401 51.2323L37.9401 51.2323L37.9404 51.2322L37.9408 51.2321L37.9412 51.2321L37.9413 51.232C39.089 50.9656 40.2184 50.7035 41.6096 50.4115C44.2731 49.8524 49.4476 48.2433 53.1514 46.8878C56.6256 45.6163 63.7375 42.0795 66.0712 40.919L66.0713 40.9189L66.4688 40.7214C68.899 39.5157 72.4751 37.8672 73.6896 37.8672C75.4653 37.8672 83.9647 43.9052 85.7065 45.2451C87.2784 46.4543 96.8561 55.3917 101.242 59.7294C101.339 59.8256 101.486 59.8406 101.603 59.7706L105.572 57.4077C106.024 57.1391 106.19 56.5673 105.954 56.0984L98.4215 41.1511L98.5086 41.102L94.6408 34.8921L94.5283 34.9501L91.5826 28.6775C91.5395 28.5858 91.5679 28.4789 91.6537 28.4249C95.4032 26.0675 103.291 20.3555 107.538 17.28ZM18.5758 54.4372C18.2811 53.6221 18.6357 52.5314 18.9037 51.9997L0.392223 46.1995C0.236365 46.1506 0.201592 45.9457 0.332621 45.8482L3.67543 43.3606C3.88002 43.2083 4.13506 43.14 4.38837 43.1696L20.8915 45.096L16.9942 36.3954C16.9503 36.2973 16.9917 36.1822 17.0879 36.1344L21.9178 33.7382C22.5184 33.4403 23.226 33.4636 23.8112 33.7908C27.8715 36.0613 34.0279 39.0562 35.5003 39.0562C37.4224 39.0562 53.4999 29.1274 55.4624 27.5776C55.5496 27.5088 55.5493 27.3846 55.4688 27.3081C54.2503 26.1499 52.7027 25.2906 51.0155 24.3537L51.0154 24.3536L51.0152 24.3535C49.9559 23.7653 48.8415 23.1465 47.719 22.4039C46.5836 22.0284 41.2776 19.9272 34.9923 17.4382L34.9922 17.4382L34.9915 17.4379C28.4222 14.8364 20.7831 11.8113 15.7178 9.89007C15.4533 9.78975 15.4651 9.41375 15.7337 9.32492L20.3912 7.78451C20.7191 7.67603 21.0598 7.65255 21.3987 7.71921C34.5532 10.3063 60.9647 14.6372 63.5729 14.8236C63.7976 14.8753 64.0481 14.9325 64.3199 14.9938C65.5034 15.2608 67.0902 15.6062 68.7025 15.9196C70.3141 16.2328 71.9545 16.5148 73.2442 16.6541C73.6434 16.6972 74.0111 16.7269 74.3352 16.7394L74.2287 16.8175L74.8252 16.852L75.4589 16.8195C75.4847 16.8182 75.51 16.8119 75.5334 16.801L97.5095 6.5242L106.934 2.14415C107.683 1.87731 109.61 1.26877 111.33 0.969304C113.05 0.669841 115.031 0.844528 115.807 0.969304C116.023 1.01166 116.231 1.04909 116.429 1.08481C116.976 1.18332 117.45 1.26883 117.843 1.40859C117.323 1.63533 116.707 1.91093 116.379 2.29383C115.704 3.07941 117.051 3.73898 117.051 3.73898C117.051 3.73898 117.534 3.89671 117.943 3.60766L119.323 2.68204C119.507 3.04483 119.724 3.77895 119.596 4.77956C119.572 4.96383 119.532 5.15325 119.48 5.34478C119.419 5.39348 119.357 5.44317 119.293 5.49381C118.519 6.10743 117.519 6.8398 116.335 7.66995C113.969 9.32847 110.882 11.3644 107.415 13.6016L77.8983 30.9197L70.5769 34.7941L61.6523 39.1534L47.6368 44.9531L18.5758 54.4372ZM103.382 38.3574L102.748 38.7146C102.485 36.6516 101.675 35.1832 100.659 34.1764C100.029 33.5529 99.3302 33.1159 98.6527 32.8248L99.8447 32.2106C100.218 32.0181 100.672 32.0797 100.981 32.3648L101.892 33.2061C102.623 33.8807 103.175 34.7264 103.498 35.6671L103.928 36.9223C104.116 37.4698 103.887 38.0734 103.382 38.3574ZM99.9505 34.8852C100.854 35.7797 101.619 37.1609 101.797 39.2501L98.7703 40.9547L94.9084 34.7543L97.4182 33.461C98.2061 33.6535 99.1444 34.0867 99.9505 34.8852ZM64.372 14.698L64.3859 14.7011C65.5677 14.9678 67.1514 15.3125 68.7598 15.6251C70.369 15.9379 71.9996 16.2179 73.2764 16.3558C73.8487 16.4177 74.3456 16.4504 74.7358 16.4457L74.9949 16.2557C73.9709 14.202 72.6104 13.1778 71.3279 12.7136C70.4893 12.41 69.668 12.3401 68.972 12.3928C68.6204 12.5805 68.2625 12.7754 67.9061 12.9695C66.5726 13.6956 65.2594 14.4108 64.372 14.698ZM70.731 11.5103C71.0389 11.5727 71.3527 11.659 71.6683 11.7733C73.1558 12.3118 74.6499 13.4582 75.7683 15.5729L75.9539 15.4013C76.3112 15.071 76.3813 14.5303 76.1046 14.1302C75.1193 12.706 73.703 10.9943 72.4118 10.9943C72.0153 10.9943 71.4247 11.1975 70.731 11.5103ZM2.67266 45.4593L4.22764 44.2639C4.31313 44.1982 4.42153 44.1698 4.52827 44.1851L20.7912 46.5195L19.4378 50.2515L9.39407 47.6309L2.74178 45.8108C2.58238 45.7672 2.54165 45.5601 2.67266 45.4593ZM35.8731 62.9704L33.7831 63.8822C33.7025 63.9174 33.6084 63.8958 33.5512 63.829L25.8108 54.7882L33.1622 52.4584L36.2061 62.2422C36.2969 62.5344 36.1535 62.8481 35.8731 62.9704ZM23.965 48.1124L19.3166 37.3454C19.2731 37.2445 19.3191 37.1274 19.4196 37.083L22.7576 35.6102C22.9169 35.5399 23.0988 35.5422 23.2561 35.6166L36.2877 41.773L23.965 48.1124ZM102.618 56.9858C102.238 57.2156 101.85 57.45 101.424 57.6925C101.343 57.7383 101.244 57.725 101.181 57.6569C97.7397 53.9388 89.9246 46.3886 88.6782 45.3146C87.138 43.9875 78.9567 37.5856 75.7067 35.8592L89.0644 29.1175C89.8697 30.5351 90.8437 32.2715 91.9098 34.1723C94.1008 38.0786 96.6812 42.6792 98.9876 46.6332C101.675 51.2395 103.696 54.9231 104.191 55.851C104.243 55.9476 104.204 56.0647 104.108 56.117C103.58 56.404 103.105 56.6911 102.618 56.9858ZM18.6839 9.32846L18.6943 9.32402C19.3585 9.04012 20.3081 8.63426 20.8647 8.57834C20.985 8.56626 22.2313 8.84328 24.2932 9.30158L24.2935 9.30163L24.2935 9.30165L24.2936 9.30166L24.2937 9.30167C28.6691 10.2742 36.7167 12.063 45.4705 13.6377L52.007 14.7691C53.4772 15.0191 54.9821 15.2732 56.4773 15.5257C61.7339 16.4134 66.871 17.2809 69.9641 17.8774L56.5884 25.1523C54.1072 23.4161 49.998 21.3941 48.9991 20.9262C48.0201 20.4677 27.7281 12.6699 18.6919 9.72149C18.5119 9.66277 18.5098 9.40287 18.6839 9.32846Z" fill="#6D6D6D"/>
</svg>
