<svg width="148" height="76" viewBox="0 0 148 76" fill="none" xmlns="http://www.w3.org/2000/svg">
<path fill-rule="evenodd" clip-rule="evenodd" d="M12.3123 75.1462C6.94899 75.1462 2.60117 70.6354 2.60117 65.0711C2.60117 59.5068 6.94899 54.9961 12.3123 54.9961C17.6756 54.9961 22.0234 59.5068 22.0234 65.0711C22.0234 70.6354 17.6756 75.1462 12.3123 75.1462ZM6.98226 65.0101C6.98226 68.0513 9.35854 70.5166 12.2898 70.5166C15.2211 70.5166 17.5974 68.0513 17.5974 65.0101C17.5974 61.969 15.2211 59.5037 12.2898 59.5037C9.35854 59.5037 6.98226 61.969 6.98226 65.0101ZM13.8527 65.0101C13.8527 65.8929 13.163 66.6085 12.3121 66.6085C11.4613 66.6085 10.7715 65.8929 10.7715 65.0101C10.7715 64.1274 11.4613 63.4118 12.3121 63.4118C13.163 63.4118 13.8527 64.1274 13.8527 65.0101Z" fill="#6D6D6D"/>
<rect x="58.4004" y="13.251" width="1.893" height="11.6776" transform="rotate(-90 58.4004 13.251)" fill="#6D6D6D"/>
<rect x="58.4004" y="7.57202" width="1.893" height="11.6776" transform="rotate(-90 58.4004 7.57202)" fill="#6D6D6D"/>
<path d="M73.1094 22.0071H109.153V25.3905C109.153 25.9428 108.705 26.3905 108.153 26.3905H74.1094C73.5571 26.3905 73.1094 25.9428 73.1094 25.3905V22.0071Z" fill="#6D6D6D"/>
<rect width="3.27174" height="2.92227" transform="matrix(1 0 0 -1 70.2266 24.9294)" fill="#6D6D6D"/>
<rect x="58.5508" y="18.9299" width="11.6776" height="7.572" fill="#6D6D6D"/>
<path fill-rule="evenodd" clip-rule="evenodd" d="M55.199 75.1462C49.8357 75.1462 45.4879 70.6354 45.4879 65.0711C45.4879 59.5068 49.8357 54.9961 55.199 54.9961C60.5623 54.9961 64.9102 59.5068 64.9102 65.0711C64.9102 70.6354 60.5623 75.1462 55.199 75.1462ZM49.8697 65.0098C49.8697 68.051 52.246 70.5163 55.1773 70.5163C58.1086 70.5163 60.4849 68.051 60.4849 65.0098C60.4849 61.9687 58.1086 59.5033 55.1773 59.5033C52.246 59.5033 49.8697 61.9687 49.8697 65.0098ZM56.6922 65.0708C56.6922 65.9536 56.0024 66.6692 55.1516 66.6692C54.3007 66.6692 53.611 65.9536 53.611 65.0708C53.611 64.1881 54.3007 63.4725 55.1516 63.4725C56.0024 63.4725 56.6922 64.1881 56.6922 65.0708Z" fill="#6D6D6D"/>
<rect x="119.066" y="48.7515" width="27.694" height="19.323" stroke="#6D6D6D" stroke-width="1.5"/>
<path d="M125.014 63.1849H124.79H124.565V60.8187V60.3454H123.863L124.79 59.3989L125.688 60.3454H125.014V60.8187V63.1849Z" stroke="#6D6D6D" stroke-width="2"/>
<rect x="88.9707" y="48.7515" width="27.694" height="19.323" stroke="#6D6D6D" stroke-width="1.5"/>
<path d="M94.9185 63.1849H94.6939H94.4694V60.8187V60.3454H93.7676L94.6939 59.3989L95.5922 60.3454H94.9185V60.8187V63.1849Z" stroke="#6D6D6D" stroke-width="2"/>
<rect x="119.066" y="26.54" width="27.694" height="19.323" stroke="#6D6D6D" stroke-width="1.5"/>
<path d="M125.014 40.9735H124.79H124.565V38.6073V38.134H123.863L124.79 37.1875L125.688 38.134H125.014V38.6073V40.9735Z" stroke="#6D6D6D" stroke-width="2"/>
<rect x="77.2852" y="0.75" width="27.694" height="19.323" stroke="#6D6D6D" stroke-width="1.5"/>
<path d="M83.2329 15.1835H83.0084H82.7838V12.8172V12.344H82.082L83.0084 11.3975L83.9067 12.344H83.2329V12.8172V15.1835Z" stroke="#6D6D6D" stroke-width="2"/>
<rect x="139.506" y="73.4922" width="8.00029" height="2.50784" fill="#6D6D6D"/>
<rect x="114.133" y="73.4922" width="7.99187" height="2.50784" fill="#6D6D6D"/>
<rect x="87.2949" y="70.3569" width="60.2127" height="3.1348" fill="#6D6D6D"/>
<rect x="87.2949" y="73.4922" width="8.00029" height="2.50784" fill="#6D6D6D"/>
<rect x="63.8711" y="66.2554" width="4.3791" height="1.893" fill="#6D6D6D"/>
<path d="M18.5612 32.5486L17.4031 32.5486C17.2927 32.5486 17.2031 32.6381 17.2031 32.7486V36.5226V40.4966V44.9122V45.4447C17.2031 47.1016 18.5463 48.4447 20.2031 48.4447H21.509H33.0248V46.7953C33.0248 46.2431 32.5771 45.7953 32.0248 45.7953L20.5612 45.7953C20.0089 45.7953 19.5612 45.3476 19.5612 44.7953V44.0291V38.2888V33.5486C19.5612 32.9963 19.1135 32.5486 18.5612 32.5486Z" fill="#6D6D6D"/>
<path fill-rule="evenodd" clip-rule="evenodd" d="M11.7845 21.823C11.7845 20.7184 12.6799 19.823 13.7845 19.823H14.3854H24.7912H34.4569C35.2688 19.823 36.0205 20.2511 36.4348 20.9493L55.2679 52.6875L55.3336 52.7983C55.3045 52.7981 55.2753 52.798 55.2461 52.798C48.2347 52.798 43.1277 58.6789 43.0989 65.8633H43.098C43.098 66.6419 43.1577 67.4055 43.2729 68.1481H24.1235C24.2326 67.4248 24.289 66.6818 24.289 65.9245H23.4891C23.4891 66.6844 23.4295 67.4275 23.3148 68.1481H22.3662C22.4972 67.4286 22.5674 66.6851 22.571 65.9248H22.5714C22.5714 59.6396 18.0195 54.4892 12.2079 54.4892C6.41327 54.4892 1.92987 59.6083 1.9007 65.8634H1.90032C1.90032 66.645 1.96988 67.4092 2.10287 68.1481H1.06028C0.947678 67.4275 0.889351 66.6845 0.889351 65.9245L0.490234 65.9245H0.889999C0.889999 59.0794 5.71917 53.5981 12.2373 53.5981C18.7514 53.5981 23.4897 59.0749 23.4897 65.9245H24.2897C24.2897 58.7169 19.2727 52.7981 12.2373 52.7981C11.2266 52.7981 10.2554 52.9203 9.33326 53.1511V44.5387C9.33326 43.9865 9.78098 43.5387 10.3333 43.5387H11.7845V43.1191V21.9536V21.823ZM43.8982 65.9243C43.9014 66.6845 43.9641 67.4276 44.0822 68.1481H45.0975C44.9716 67.4281 44.9058 66.6845 44.9058 65.9244H45.502L45.502 65.9239H44.9058C44.9058 59.641 49.3995 54.4883 55.2132 54.4883C61.0247 54.4883 65.5766 59.6387 65.5766 65.9239H64.9766C64.9766 64.6817 64.7914 63.4904 64.4498 62.382C64.8476 64.0221 64.8616 65.848 64.8608 67.6104C64.937 67.0613 64.9766 66.4983 64.9766 65.9244H65.5766C65.5766 66.6846 65.51 67.4282 65.3826 68.1481H66.3171C66.436 67.4084 66.4977 66.6448 66.4977 65.8633H66.4984C66.4703 59.0422 61.7408 53.598 55.2461 53.598C48.728 53.598 43.8988 59.0793 43.8988 65.9243H43.8982ZM66.8996 62.4718V60.0309C66.8996 56.1545 63.7493 53.0161 59.8728 53.031L57.6565 53.0395C62.3212 53.997 65.7692 57.7076 66.8996 62.4718ZM45.7061 68.148L45.7061 68.1481H64.7737L64.7737 68.148H56.2887H45.7061ZM45.5274 65.1871C45.5191 65.3644 45.5126 65.5415 45.5075 65.7177C45.5104 65.5397 45.517 65.3628 45.5274 65.1871ZM54.4558 55.12C52.7227 55.4057 50.7816 56.1832 49.1556 57.424C50.6253 56.1217 52.4489 55.2884 54.4558 55.12ZM4.91085 58.7397C4.54234 59.2386 4.20934 59.7748 3.91837 60.3437C3.0196 62.1009 2.64735 64.1617 2.51234 66.4138C2.50525 66.2518 2.50127 66.0887 2.50047 65.9248H2.50056C2.50056 63.1595 3.40603 60.6473 4.91085 58.7397ZM47.0322 47.047H33.6117V48.8726H21.2693H19.6544C17.9976 48.8726 16.6544 47.5294 16.6544 45.8726V45.0866V43.5387H13.7845V43.1191V21.9536V21.823H14.3854H24.7912H34.4569C34.5628 21.823 34.6608 21.8788 34.7148 21.9699L44.3836 38.264C43.5371 38.7822 42.4615 39.5979 41.3528 40.5919C39.1146 42.5985 37.5889 44.5719 37.9451 44.9995C38.2915 45.4154 40.2909 44.2157 42.4597 42.3031L47.0322 47.047ZM45.151 39.5573C44.7882 40.0056 44.3347 40.5066 43.8134 41.0305L49.5675 47.0002L45.151 39.5573Z" fill="#6D6D6D"/>
<path fill-rule="evenodd" clip-rule="evenodd" d="M66.2376 7.57202H68.2562V67.5586H66.2376V63.2264C66.4105 64.1518 66.5009 65.1162 66.5009 66.1087H67.3009C67.3009 64.0509 66.9263 62.0915 66.2376 60.3309V7.57202ZM62.3306 54.8799L62.781 55.0657V7.57211H60.2266V53.5309C60.977 53.9013 61.6805 54.3545 62.3306 54.8799Z" fill="#6D6D6D"/>
</svg>
