<svg width="173" height="68" viewBox="0 0 173 68" fill="none" xmlns="http://www.w3.org/2000/svg">
<path d="M170.548 25.6577L161.352 7.90665C159.633 4.58928 156.209 2.50659 152.473 2.50659H128.401C128.401 11.287 128.664 37.014 128.664 40.1359C134.306 40.1359 146.735 39.363 154.766 41.5177C162.797 43.6724 165.461 45.6425 167.475 49.5449L164.135 56.6007L171.184 56.65C171.294 56.6508 171.384 56.5624 171.385 56.4522L171.668 30.366C171.686 28.7285 171.301 27.1117 170.548 25.6577Z" stroke="#6D6D6D" stroke-width="2"/>
<rect x="-0.75" y="0.75" width="115.53" height="40.2073" transform="matrix(-1 0 0 1 115.551 0.0258789)" stroke="#6D6D6D" stroke-width="1.5"/>
<path d="M7.09766 4.66001L6.25793 4.65991V37.0989H7.09766" stroke="#6D6D6D" stroke-width="0.6"/>
<path d="M11.6406 4.66001L10.8009 4.65991V37.0989H11.6406" stroke="#6D6D6D" stroke-width="0.6"/>
<path d="M16.1914 4.66001L15.3517 4.65991V37.0989H16.1914" stroke="#6D6D6D" stroke-width="0.6"/>
<path d="M20.7344 4.66001L19.8946 4.65991V37.0989H20.7344" stroke="#6D6D6D" stroke-width="0.6"/>
<path d="M25.2852 4.66001L24.4454 4.65991V37.0989H25.2852" stroke="#6D6D6D" stroke-width="0.6"/>
<path d="M29.834 4.66001L28.9943 4.65991V37.0989H29.834" stroke="#6D6D6D" stroke-width="0.6"/>
<path d="M34.3809 4.66001L33.5411 4.65991V37.0989H34.3809" stroke="#6D6D6D" stroke-width="0.6"/>
<path d="M38.9277 4.66001L38.088 4.65991V37.0989H38.9277" stroke="#6D6D6D" stroke-width="0.6"/>
<path d="M43.4805 4.66001L42.6407 4.65991V37.0989H43.4805" stroke="#6D6D6D" stroke-width="0.6"/>
<path d="M48.0293 4.66001L47.1896 4.65991V37.0989H48.0293" stroke="#6D6D6D" stroke-width="0.6"/>
<path d="M52.5762 4.66001L51.7364 4.65991V37.0989H52.5762" stroke="#6D6D6D" stroke-width="0.6"/>
<path d="M57.1191 4.66001L56.2794 4.65991V37.0989H57.1191" stroke="#6D6D6D" stroke-width="0.6"/>
<path d="M61.6699 4.66001L60.8302 4.65991V37.0989H61.6699" stroke="#6D6D6D" stroke-width="0.6"/>
<path d="M66.2188 4.66001L65.379 4.65991V37.0989H66.2188" stroke="#6D6D6D" stroke-width="0.6"/>
<path d="M70.7656 4.66001L69.9259 4.65991V37.0989H70.7656" stroke="#6D6D6D" stroke-width="0.6"/>
<path d="M75.3125 4.66001L74.4728 4.65991V37.0989H75.3125" stroke="#6D6D6D" stroke-width="0.6"/>
<path d="M79.8574 4.66001L79.0177 4.65991V37.0989H79.8574" stroke="#6D6D6D" stroke-width="0.6"/>
<path d="M84.4043 4.66001L83.5646 4.65991V37.0989H84.4043" stroke="#6D6D6D" stroke-width="0.6"/>
<path d="M88.9531 4.66001L88.1134 4.65991V37.0989H88.9531" stroke="#6D6D6D" stroke-width="0.6"/>
<path d="M93.4961 4.66001L92.6564 4.65991V37.0989H93.4961" stroke="#6D6D6D" stroke-width="0.6"/>
<path d="M98.0469 4.66001L97.2071 4.65991V37.0989H98.0469" stroke="#6D6D6D" stroke-width="0.6"/>
<path d="M102.594 4.66001L101.754 4.65991V37.0989H102.594" stroke="#6D6D6D" stroke-width="0.6"/>
<path d="M107.141 4.66001L106.301 4.65991V37.0989H107.141" stroke="#6D6D6D" stroke-width="0.6"/>
<path d="M111.688 4.66001L110.848 4.65991V37.0989H111.688" stroke="#6D6D6D" stroke-width="0.6"/>
<path d="M111.927 46.242H120.263V58.7732H111.927V46.242Z" stroke="#6D6D6D" stroke-width="0.8"/>
<path d="M128.539 46.2379H136.875V58.769H128.539V46.2379Z" stroke="#6D6D6D" stroke-width="0.8"/>
<path d="M120.226 46.2376H128.562V58.7688H120.226V46.2376Z" stroke="#6D6D6D" stroke-width="0.8"/>
<path fill-rule="evenodd" clip-rule="evenodd" d="M17.4022 67.9742C11.8847 67.9742 7.41191 63.3792 7.41191 57.7109C7.41191 52.0426 11.8847 47.4475 17.4022 47.4475C22.9198 47.4475 27.3926 52.0426 27.3926 57.7109C27.3926 63.3792 22.9198 67.9742 17.4022 67.9742ZM11.9205 57.9231C11.9205 60.9386 14.3651 63.3832 17.3806 63.3832C20.3962 63.3832 22.8408 60.9386 22.8408 57.9231C22.8408 54.9075 20.3962 52.4629 17.3806 52.4629C14.3651 52.4629 11.9205 54.9075 11.9205 57.9231ZM18.9369 57.9839C18.9369 58.8592 18.2273 59.5688 17.352 59.5688C16.4767 59.5688 15.7671 58.8592 15.7671 57.9839C15.7671 57.1086 16.4767 56.399 17.352 56.399C18.2273 56.399 18.9369 57.1086 18.9369 57.9839Z" fill="#6D6D6D"/>
<path fill-rule="evenodd" clip-rule="evenodd" d="M43.0604 67.9742C37.5429 67.9742 33.0701 63.3792 33.0701 57.7109C33.0701 52.0426 37.5429 47.4475 43.0604 47.4475C48.578 47.4475 53.0508 52.0426 53.0508 57.7109C53.0508 63.3792 48.578 67.9742 43.0604 67.9742ZM37.5787 57.9231C37.5787 60.9386 40.0233 63.3832 43.0388 63.3832C46.0544 63.3832 48.499 60.9386 48.499 57.9231C48.499 54.9075 46.0544 52.4629 43.0388 52.4629C40.0233 52.4629 37.5787 54.9075 37.5787 57.9231ZM44.5951 57.9839C44.5951 58.8592 43.8855 59.5688 43.0102 59.5688C42.1349 59.5688 41.4253 58.8592 41.4253 57.9839C41.4253 57.1086 42.1349 56.399 43.0102 56.399C43.8855 56.399 44.5951 57.1086 44.5951 57.9839Z" fill="#6D6D6D"/>
<path fill-rule="evenodd" clip-rule="evenodd" d="M98.3358 67.9742C92.8183 67.9742 88.3455 63.3792 88.3455 57.7109C88.3455 52.0426 92.8183 47.4475 98.3358 47.4475C103.853 47.4475 108.326 52.0426 108.326 57.7109C108.326 63.3792 103.853 67.9742 98.3358 67.9742ZM92.8541 57.9231C92.8541 60.9386 95.2987 63.3832 98.3142 63.3832C101.33 63.3832 103.774 60.9386 103.774 57.9231C103.774 54.9075 101.33 52.4629 98.3142 52.4629C95.2987 52.4629 92.8541 54.9075 92.8541 57.9231ZM99.8705 57.9839C99.8705 58.8592 99.1609 59.5688 98.2856 59.5688C97.4103 59.5688 96.7007 58.8592 96.7007 57.9839C96.7007 57.1086 97.4103 56.399 98.2856 56.399C99.1609 56.399 99.8705 57.1086 99.8705 57.9839Z" fill="#6D6D6D"/>
<path fill-rule="evenodd" clip-rule="evenodd" d="M127.682 38.6663H122.463V42.7263H0.0203552V48.9754H8.48514C10.7031 46.6328 13.814 45.1813 17.4062 45.1813C24.4277 45.1813 29.512 50.7249 29.7822 57.6218H30.5737C30.849 50.7209 36.0297 45.1813 43.0473 45.1813C46.6407 45.1813 49.7267 46.6332 51.9198 48.9754H89.3753C91.5933 46.6328 94.7041 45.1813 98.2963 45.1813C101.89 45.1813 104.976 46.6332 107.169 48.9754H111.23V45.6486V45.4986H111.38H137.41H137.56V45.6486V57.6218H138.229C138.302 50.6785 143.437 45.0341 150.444 45.0341C157.454 45.0341 162.491 50.6829 162.562 57.6218H170.085V56.6456H171.693V45.7054H162.909C162.402 44.8003 161.542 44.1192 160.516 43.8479L159.506 42.7263H156.74L154.193 41.4432L131.971 39.9392L127.682 38.6663ZM111.53 45.8422V45.7986H137.26V45.8422H111.53ZM111.528 57.6218H110.672C110.563 54.8384 109.67 52.2755 108.182 50.2084H111.23V57.6166H111.528V57.6218ZM161.762 57.6218H160.83C160.67 51.6634 156.143 46.8527 150.413 46.8527C144.681 46.8527 140.21 51.6655 140.053 57.6218H139.029C139.102 51.0755 143.923 45.8341 150.444 45.8341C156.96 45.8341 161.691 51.0712 161.762 57.6218ZM140.653 57.6218H160.23C160.23 57.6218 160.23 57.6218 160.23 57.6218H150.496H140.653C140.653 57.6218 140.653 57.6218 140.653 57.6218ZM98.2963 45.9813C94.6114 45.9813 91.4569 47.6163 89.3577 50.2084C87.7349 52.2121 86.7427 54.7876 86.6234 57.6218H87.6846C87.9605 51.6464 92.4866 46.8587 98.2664 46.8587C104.044 46.8587 108.626 51.6444 108.906 57.6218H109.872C109.755 54.7866 108.781 52.2115 107.179 50.2084C105.106 47.6158 101.98 45.9813 98.2963 45.9813ZM88.3498 50.2084C86.8433 52.275 85.9338 54.8376 85.8228 57.6218H55.4234C55.3143 54.8384 54.4212 52.2755 52.9331 50.2084H88.3498ZM43.0473 45.9813C36.5139 45.9813 31.6479 51.1212 31.3744 57.6218H32.4351C32.711 51.6464 37.2371 46.8587 43.0169 46.8587C48.7947 46.8587 53.3769 51.6444 53.6561 57.6218H54.6228C54.3544 51.1172 49.5768 45.9813 43.0473 45.9813ZM28.9817 57.6218H28.0144C27.7351 51.6444 23.1529 46.8587 17.3751 46.8587C11.5954 46.8587 7.06926 51.6464 6.79337 57.6218H5.73325C6.00681 51.1212 10.8727 45.9813 17.4062 45.9813C23.9357 45.9813 28.7133 51.1172 28.9817 57.6218ZM4.93262 57.6218H1.02039C0.468094 57.6218 0.0203857 57.1741 0.0203857 56.6218V50.2084H7.4597C5.9532 52.275 5.04367 54.8376 4.93262 57.6218Z" fill="#6D6D6D"/>
<path fill-rule="evenodd" clip-rule="evenodd" d="M150.445 67.9742C144.928 67.9742 140.455 63.3792 140.455 57.7109C140.455 52.0426 144.928 47.4475 150.445 47.4475C155.963 47.4475 160.436 52.0426 160.436 57.7109C160.436 63.3792 155.963 67.9742 150.445 67.9742ZM144.963 57.9231C144.963 60.9386 147.408 63.3832 150.424 63.3832C153.439 63.3832 155.884 60.9386 155.884 57.9231C155.884 54.9075 153.439 52.4629 150.424 52.4629C147.408 52.4629 144.963 54.9075 144.963 57.9231ZM151.98 57.9839C151.98 58.8592 151.27 59.5688 150.395 59.5688C149.52 59.5688 148.81 58.8592 148.81 57.9839C148.81 57.1086 149.52 56.399 150.395 56.399C151.27 56.399 151.98 57.1086 151.98 57.9839Z" fill="#6D6D6D"/>
</svg>
