<svg width="15" height="15" viewBox="0 0 15 15" fill="none" xmlns="http://www.w3.org/2000/svg">
<path d="M14.6144 11.064L12.7496 9.19916C12.2355 8.68506 11.3989 8.68506 10.8848 9.19916L10.0372 10.0468C9.64769 10.4363 9.01392 10.4362 8.62457 10.0469L4.95058 6.3698C4.56018 5.9794 4.56012 5.34753 4.95058 4.95707C5.08711 4.82055 5.47915 4.42851 5.79821 4.10945C6.31008 3.59761 6.31722 2.76364 5.79771 2.24418L3.93341 0.38574C3.41928 -0.128355 2.58273 -0.128355 2.06999 0.384392C1.6863 0.764741 1.56254 0.887442 1.3905 1.05799C-0.463486 2.91195 -0.463486 5.92857 1.39041 7.78247L7.21173 13.6068C9.07005 15.4652 12.0778 15.4653 13.9363 13.6068L14.6144 12.9287C15.1285 12.4146 15.1285 11.5781 14.6144 11.064ZM2.69023 1.00733C2.86159 0.835965 3.14039 0.835935 3.31232 1.0078L5.17662 2.86624C5.34839 3.03802 5.34839 3.31603 5.17662 3.48783L4.86579 3.79862L2.38101 1.31385L2.69023 1.00733ZM7.83343 12.9853L2.01209 7.16091C0.577712 5.72653 0.498871 3.47424 1.76962 1.94566L4.24719 4.42323C3.59619 5.16122 3.62332 6.28578 4.32884 6.99131L8.00272 10.6683C8.00275 10.6683 8.00281 10.6683 8.00284 10.6684C8.7076 11.3732 9.8321 11.4021 10.571 10.7502L13.0486 13.2278C11.5249 14.4964 9.27769 14.4296 7.83343 12.9853ZM13.9928 12.3071L13.682 12.618L11.1956 10.1315L11.5064 9.82075C11.6778 9.64938 11.9566 9.64935 12.128 9.82075L13.9928 11.6855C14.1642 11.8569 14.1642 12.1358 13.9928 12.3071Z" fill="#222222"/>
</svg>
