<svg width="83" height="44" viewBox="0 0 83 44" fill="none" xmlns="http://www.w3.org/2000/svg">
<path d="M73.4887 10.8523C71.1028 12.5892 64.8125 17.2144 61.962 19.0279C61.8769 19.0821 61.8476 19.1891 61.8902 19.2805L63.8341 23.4524L67.1758 21.7169C67.5511 21.522 68.0083 21.5842 68.3179 21.8722L68.3921 21.9413C69.118 22.6166 69.6652 23.4614 69.9847 24.3999L70.0108 24.4764C70.1966 25.0219 69.9683 25.6224 69.4672 25.9069L66.4352 27.6278L71.3337 37.4248C71.5674 37.8921 71.4018 38.4606 70.9538 38.7295L68.6283 40.1247C68.5102 40.1956 68.3615 40.1793 68.264 40.0822C65.3093 37.1415 58.9838 31.1936 57.9402 30.3845C56.7765 29.4823 51.098 25.4166 49.9117 25.4166C49.1002 25.4166 46.7111 26.5266 45.0874 27.3385C43.9011 27.9316 38.6645 30.5779 36.19 31.4906C33.7155 32.4033 30.2584 33.4868 28.4789 33.8632C26.6994 34.2397 25.561 34.5424 23.7505 34.9326L25.7421 41.7302C25.8813 42.2055 25.6516 42.7112 25.202 42.9191L23.0085 43.9332C22.9287 43.97 22.8342 43.9505 22.7756 43.8851L16.4585 36.8323C15.4271 37.0901 13.8402 37.4561 13.3089 36.9249C12.7777 36.3936 13.0876 35.3753 13.3089 34.9326L1.06254 31.0654C0.907311 31.0163 0.872538 30.8123 1.00276 30.7146L3.02791 29.1958C3.23322 29.0418 3.48987 28.9726 3.74475 29.0026L14.637 30.2841L12.0584 24.482C12.0149 24.3843 12.056 24.2697 12.1517 24.2219L14.9975 22.799C15.6013 22.4971 16.3147 22.5214 16.9048 22.8492C19.6104 24.3519 23.4511 26.2172 24.3973 26.2172C25.6673 26.2172 36.1891 19.6771 37.6876 18.5244C37.7752 18.457 37.7718 18.3376 37.6912 18.262C36.3681 17.0198 34.4822 16.2855 32.5606 15.0045C31.0289 14.4939 18.1362 9.24562 11.4359 6.67612C11.1725 6.57509 11.184 6.20011 11.4517 6.11089L14.1332 5.21706C14.4634 5.107 14.8101 5.08391 15.1515 5.1513C24.1944 6.93592 42.2023 9.90444 43.2447 9.90444C44.3072 9.90444 47.907 7.32186 49.058 7.32186C49.8551 7.32186 50.7236 8.30591 51.3703 9.21204C51.6513 9.60577 51.5801 10.1443 51.2262 10.474L50.8965 10.7813L50.2718 11.2429L50.6704 11.2661L51.0805 11.2449C51.1065 11.2436 51.132 11.2372 51.1555 11.2261L65.8259 4.31191L72.1221 1.36262C72.6225 1.18295 73.9106 0.773184 75.0597 0.571542C76.2087 0.3699 77.5322 0.487525 78.0503 0.571542C78.7396 0.707316 79.2923 0.768035 79.6752 0.986827C79.9658 1.15285 80.0539 1.22029 80.3328 1.61229C80.4582 1.78598 80.6836 2.33411 80.5818 3.13716C80.48 3.94021 79.9206 4.88858 79.5153 5.42583C79.0488 6.01963 77.2847 7.81132 76.7598 8.23993C76.0812 8.79415 74.5483 10.081 73.4887 10.8523Z" fill="#6D6D6D"/>
<path d="M68.4875 38.7391C69.0968 38.3877 69.591 38.0613 70.1787 37.7358C70.274 37.683 70.3116 37.5656 70.2604 37.4694C69.8839 36.7625 68.5591 34.3343 66.8138 31.319C64.5231 27.3611 61.8278 22.441 60.1841 19.5249L51.2598 24.0644C53.4311 25.2268 58.8971 29.5375 59.9261 30.4311C60.7545 31.1506 65.9264 36.1859 68.2434 38.7029C68.3065 38.7715 68.4068 38.7857 68.4875 38.7391Z" fill="white"/>
<path d="M63.916 23.2336L66.7789 27.8661" stroke="white" stroke-width="0.3"/>
<path d="M13.3319 6.12707C13.7576 5.94518 14.2904 5.72831 14.6187 5.69508C14.8697 5.66967 22.4532 7.5417 31.058 9.10178L35.4251 9.86364C39.8607 10.6237 44.768 11.4406 47.4223 11.9566L38.4859 16.8551C36.8282 15.6861 34.0828 14.3245 33.4155 14.0095C32.7678 13.7038 19.4696 8.55292 13.3473 6.52432C13.1681 6.46493 13.1582 6.20127 13.3319 6.12707Z" fill="white"/>
<path d="M3.4591 29.7585L2.56777 30.4491C2.43756 30.55 2.47831 30.7562 2.6371 30.8L6.95571 31.9909L13.666 33.7555L14.5702 31.2426L3.76136 29.6789C3.65397 29.6633 3.54488 29.6921 3.4591 29.7585Z" fill="white"/>
<path d="M42.3633 9.60962C42.3633 9.60962 50.7017 11.641 51.2392 10.9505" stroke="white" stroke-width="0.3"/>
<path d="M24.4861 42.3902L23.2959 42.9135C23.215 42.9491 23.1202 42.9273 23.063 42.8599L17.9238 36.8102L22.8353 35.2415L24.8179 41.664C24.9078 41.9552 24.7651 42.2675 24.4861 42.3902Z" fill="white"/>
<path d="M13.6098 25.1238L16.6903 32.315L24.9232 28.0464L16.3005 23.9409C16.1423 23.8656 15.959 23.8632 15.7988 23.9344L13.7124 24.8623C13.6125 24.9067 13.5668 25.0232 13.6098 25.1238Z" fill="white"/>
<path d="M78.4318 1.46331C78.8333 0.99202 79.8746 0.762155 79.9981 0.533351L80.396 0.695282L80.7077 1.10085L80.5787 1.6031L79.4771 2.34797C79.2036 2.5426 78.8812 2.43639 78.8812 2.43639C78.8812 2.43639 77.9812 1.99227 78.4318 1.46331Z" fill="white"/>
<path d="M81.6854 2.87524C80.8946 3.86385 77.2585 6.34722 72.6193 9.36417L52.8868 21.0326L47.9841 23.6474L42.0074 26.5897L32.6221 30.5039L11.4922 37.4538" stroke="white"/>
<path d="M45.8379 8.10962C47.0344 7.68335 49.7934 7.68335 51.2573 11.0935" stroke="white"/>
<path d="M65.2625 22.0331C66.5752 22.1056 69.1698 23.2516 69.0468 27.2553" stroke="white"/>
</svg>
