<svg width="84" height="44" viewBox="0 0 84 44" fill="none" xmlns="http://www.w3.org/2000/svg">
<path d="M6.21706 29.327L31.626 29.2317C35.5022 29.2171 38.6522 32.3554 38.6522 36.2316V37.5497H1.29297V35.6581L1.72258 33.7571L2.55012 32.2852L3.88652 30.7782L6.21706 29.327Z" fill="#6D6D6D"/>
<path d="M6.26758 24.9899C6.26758 24.4376 6.71529 23.9899 7.26758 23.9899H10.2882C10.8405 23.9899 11.2882 24.4376 11.2882 24.9899V29.4844H6.26758V24.9899Z" fill="#6D6D6D"/>
<path d="M8.20911 12.0965V23.7587V29.3121H31.6248L21.197 12.0999C20.9614 11.711 20.5398 11.4735 20.0852 11.4735H14.9636H9.10971H8.83208C8.48802 11.4735 8.20911 11.7524 8.20911 12.0965Z" stroke="#6D6D6D" stroke-width="2"/>
<path d="M9.93408 25.9229H29.8424L31.0015 27.4875V29.052H9.93408V25.9229Z" fill="#6D6D6D"/>
<path d="M2.25499 36.3247C2.25499 32.936 4.72488 30.189 7.88474 30.189C11.0446 30.189 13.546 32.936 13.546 36.3247" stroke="white" stroke-width="0.6"/>
<path d="M2.25499 36.2909C2.25499 39.6795 4.72488 42.4266 7.88474 42.4266C11.0446 42.4266 13.546 39.6795 13.546 36.2909" stroke="white" stroke-width="0.6"/>
<path fill-rule="evenodd" clip-rule="evenodd" d="M7.90153 29.7123C11.4595 29.7123 14.0567 32.6389 14.0567 36.3245H14.8567C14.8567 32.2646 11.9659 28.9123 7.90153 28.9123C3.84124 28.9123 0.892955 32.2602 0.892955 36.3245H1.69295C1.69295 32.6434 4.33945 29.7123 7.90153 29.7123Z" fill="white"/>
<path fill-rule="evenodd" clip-rule="evenodd" d="M7.8475 42.9368C4.28954 42.9368 1.69233 40.0102 1.69233 36.3246H0.892334C0.892334 40.3845 3.7831 43.7368 7.8475 43.7368C11.9078 43.7368 14.8561 40.3889 14.8561 36.3246H14.0561C14.0561 40.0057 11.4096 42.9368 7.8475 42.9368Z" fill="white"/>
<ellipse rx="5.46309" ry="5.55137" transform="matrix(-1 0 0 1 7.89994 36.3246)" fill="#6D6D6D"/>
<ellipse rx="2.98583" ry="3.03408" transform="matrix(-1 0 0 1 7.88721 36.291)" fill="white"/>
<ellipse cx="7.87119" cy="36.3246" rx="0.866676" ry="0.880678" fill="#6D6D6D"/>
<rect x="33.8704" y="7.30127" width="1.04305" height="6.56936" transform="rotate(-90 33.8704 7.30127)" fill="#6D6D6D"/>
<rect x="33.8704" y="4.17212" width="1.04305" height="6.56936" transform="rotate(-90 33.8704 4.17212)" fill="#6D6D6D"/>
<rect x="37.9775" y="4.17212" width="1.43705" height="33.3775" fill="#6D6D6D"/>
<path d="M34.8973 4.17224H36.3344L36.3344 36.5067H34.8973L34.8973 4.17224Z" fill="#6D6D6D"/>
<path d="M42.1447 12.126H62.4213V13.5412C62.4213 14.0935 61.9736 14.5412 61.4213 14.5412H43.1447C42.5924 14.5412 42.1447 14.0935 42.1447 13.5412V12.126Z" fill="#6D6D6D"/>
<rect width="1.84055" height="1.61018" transform="matrix(1 0 0 -1 40.5234 13.7363)" fill="#6D6D6D"/>
<rect x="33.955" y="10.4305" width="6.56935" height="4.17218" fill="#6D6D6D"/>
<path d="M26.4481 36.3242C26.4481 32.9355 28.918 30.1885 32.0779 30.1885C35.2377 30.1885 37.7391 32.9355 37.7391 36.3242" stroke="white" stroke-width="0.6"/>
<path d="M26.4481 36.3244C26.4481 39.7131 28.918 42.4601 32.0779 42.4601C35.2377 42.4601 37.7391 39.7131 37.7391 36.3244" stroke="white" stroke-width="0.6"/>
<path d="M25.4875 36.3244C25.4875 32.4517 28.2849 29.3122 32.0961 29.3122C35.9073 29.3122 38.6512 32.4517 38.6512 36.3244" stroke="white" stroke-width="0.8"/>
<ellipse rx="5.46309" ry="5.55136" transform="matrix(-1 0 0 1 32.0956 36.3243)" fill="#6D6D6D"/>
<ellipse rx="2.98583" ry="3.03408" transform="matrix(-1 0 0 1 32.0835 36.2904)" fill="white"/>
<ellipse cx="32.0687" cy="36.3241" rx="0.866673" ry="0.880682" fill="#6D6D6D"/>
<path d="M25.4871 36.2908C25.4871 40.1636 28.2845 43.303 32.0957 43.303C35.9069 43.303 38.6509 40.1636 38.6509 36.2908" stroke="white" stroke-width="0.8"/>
<rect width="1.03479" height="6.2088" transform="matrix(0.701418 -0.71275 0.701418 0.71275 24.4978 22.8971)" fill="#6D6D6D"/>
<ellipse rx="3.03407" ry="0.56003" transform="matrix(0.751416 -0.659829 0.64783 0.761785 24.6434 22.7928)" fill="#6D6D6D"/>
<path d="M10.8079 18.2035L10.5861 18.2035C10.4757 18.2035 10.3861 18.293 10.3861 18.4035V20.5504V22.8972V25.5048C10.3861 26.6569 11.3201 27.5909 12.4722 27.5909H12.9823H19.9256V27.0263C19.9256 26.4741 19.4779 26.0263 18.9256 26.0263L12.8079 26.0263C12.2556 26.0263 11.8079 25.5786 11.8079 25.0263V24.9833V21.5934V19.2035C11.8079 18.6512 11.3602 18.2035 10.8079 18.2035Z" fill="#6D6D6D" stroke="white" stroke-width="0.2"/>
<rect x="68.3267" y="27.1988" width="14.9234" height="9.97351" fill="white" stroke="#6D6D6D" stroke-width="1.5"/>
<path d="M71.3446 34.8149H71.2183H71.0919V33.511V33.2503H70.6971L71.2183 32.7288L71.7236 33.2503H71.3446V33.511V34.8149Z" stroke="#6D6D6D" stroke-width="2"/>
<rect x="51.3966" y="27.1988" width="14.9234" height="9.97351" fill="white" stroke="#6D6D6D" stroke-width="1.5"/>
<path d="M54.4146 34.8149H54.2882H54.1619V33.511V33.2503H53.7671L54.2882 32.7288L54.7936 33.2503H54.4146V33.511V34.8149Z" stroke="#6D6D6D" stroke-width="2"/>
<rect x="68.3267" y="14.9603" width="14.9234" height="9.97352" fill="white" stroke="#6D6D6D" stroke-width="1.5"/>
<path d="M71.3446 22.5764H71.2183H71.0919V21.2726V21.0118H70.6971L71.2183 20.4903L71.7236 21.0118H71.3446V21.2726V22.5764Z" stroke="#6D6D6D" stroke-width="2"/>
<rect x="44.822" y="0.75" width="14.9234" height="9.97351" fill="white" stroke="#6D6D6D" stroke-width="1.5"/>
<path d="M47.84 8.36606H47.7136H47.5873V7.06225V6.80149H47.1925L47.7136 6.27997L48.219 6.80149H47.84V7.06225V8.36606Z" stroke="#6D6D6D" stroke-width="2"/>
<rect x="79.4969" y="40.4942" width="4.50064" height="1.38182" fill="#6D6D6D"/>
<rect x="65.2228" y="40.4942" width="4.49591" height="1.38182" fill="#6D6D6D"/>
<rect x="50.1255" y="38.7668" width="33.8732" height="1.72728" fill="#6D6D6D"/>
<rect x="50.1251" y="40.4942" width="4.50064" height="1.38182" fill="#6D6D6D"/>
<rect x="36.9485" y="36.5067" width="2.46351" height="1.04305" fill="#6D6D6D"/>
</svg>
