<svg width="115" height="46" viewBox="0 0 115 46" fill="none" xmlns="http://www.w3.org/2000/svg">
<rect x="81.0938" y="25.6418" width="23.7888" height="3.90946" fill="#6D6D6D"/>
<rect x="84.4121" y="28.9775" width="23.6287" height="5.12063" fill="#6D6D6D"/>
<path d="M7.02526 31.5572H20.0044L20.9624 33.461H5.55469L7.02526 31.5572Z" fill="#6D6D6D"/>
<path d="M18.0359 31.9277H34.1249L35.9781 34.1403H16.9453L18.0359 31.9277Z" fill="#6D6D6D"/>
<path d="M112.441 33.2615H0.502068V37.1555C0.502068 37.7078 0.949783 38.1555 1.50207 38.1555H112.441V33.2615Z" fill="#6D6D6D"/>
<path d="M107.227 28.3218H0.502388V32.4472H107.227L110.203 31.5805L107.227 28.3218Z" fill="#6D6D6D"/>
<path d="M112.385 16.3568L107.645 7.18129C105.929 3.85798 102.501 1.77051 98.7606 1.77051H85.0031C85.0031 7.56701 85.1765 24.5511 85.1765 26.6121C88.89 26.6121 97.1556 26.615 102.442 28.0374C107.728 29.4599 109.397 30.2473 110.722 32.8235L105.218 37.8376H113.3C113.41 37.8376 113.5 37.7481 113.5 37.6376V20.9461C113.5 19.3492 113.118 17.7756 112.385 16.3568Z" fill="white" stroke="#6D6D6D" stroke-width="2"/>
<path d="M113.5 30.2886H104.885V37.5109H113.5V30.2886Z" fill="#6D6D6D"/>
<rect x="-0.75" y="0.75" width="75.531" height="26.0336" transform="matrix(-1 0 0 1 76.0312 0.132812)" fill="white" stroke="#6D6D6D" stroke-width="1.5"/>
<path d="M92.8653 38.6849C92.8653 34.749 95.7718 31.5583 99.4903 31.5583C103.209 31.5583 106.152 34.749 106.152 38.6849" stroke="white" stroke-width="0.6"/>
<path d="M91.7358 38.685C91.7358 34.1868 95.0277 30.5403 99.5126 30.5403C103.998 30.5403 107.227 34.1868 107.227 38.685" stroke="white" stroke-width="0.8"/>
<ellipse rx="6.42883" ry="6.44787" transform="matrix(-1 0 0 1 99.5106 38.6849)" fill="#6D6D6D"/>
<path d="M94.5682 38.6852C94.5682 41.4241 96.7818 43.6435 99.5112 43.6435C102.241 43.6435 104.454 41.4241 104.454 38.6852C104.454 35.9462 102.241 33.7269 99.5112 33.7269C96.7818 33.7269 94.5682 35.9462 94.5682 38.6852Z" stroke="#6D6D6D" stroke-width="0.4"/>
<ellipse rx="3.51366" ry="3.52406" transform="matrix(-1 0 0 1 99.4961 38.3007)" fill="white"/>
<ellipse cx="99.5101" cy="38.3005" rx="1.01989" ry="1.02291" fill="#6D6D6D"/>
<path d="M5.16016 3.1922L4.60744 3.19214V24.6072H5.16016" stroke="#6D6D6D" stroke-width="0.6"/>
<path d="M8.15039 3.1922L7.59767 3.19214V24.6072H8.15039" stroke="#6D6D6D" stroke-width="0.6"/>
<path d="M11.1445 3.1922L10.5918 3.19214V24.6072H11.1445" stroke="#6D6D6D" stroke-width="0.6"/>
<path d="M14.1348 3.1922L13.582 3.19214V24.6072H14.1348" stroke="#6D6D6D" stroke-width="0.6"/>
<path d="M17.1309 3.1922L16.5781 3.19214V24.6072H17.1309" stroke="#6D6D6D" stroke-width="0.6"/>
<path d="M20.125 3.1922L19.5723 3.19214V24.6072H20.125" stroke="#6D6D6D" stroke-width="0.6"/>
<path d="M23.1172 3.1922L22.5645 3.19214V24.6072H23.1172" stroke="#6D6D6D" stroke-width="0.6"/>
<path d="M26.1113 3.1922L25.5586 3.19214V24.6072H26.1113" stroke="#6D6D6D" stroke-width="0.6"/>
<path d="M29.1074 3.1922L28.5547 3.19214V24.6072H29.1074" stroke="#6D6D6D" stroke-width="0.6"/>
<path d="M32.1016 3.1922L31.5488 3.19214V24.6072H32.1016" stroke="#6D6D6D" stroke-width="0.6"/>
<path d="M35.0957 3.1922L34.543 3.19214V24.6072H35.0957" stroke="#6D6D6D" stroke-width="0.6"/>
<path d="M38.084 3.1922L37.5313 3.19214V24.6072H38.084" stroke="#6D6D6D" stroke-width="0.6"/>
<path d="M41.0801 3.1922L40.5274 3.19214V24.6072H41.0801" stroke="#6D6D6D" stroke-width="0.6"/>
<path d="M44.0742 3.1922L43.5215 3.19214V24.6072H44.0742" stroke="#6D6D6D" stroke-width="0.6"/>
<path d="M47.0664 3.1922L46.5137 3.19214V24.6072H47.0664" stroke="#6D6D6D" stroke-width="0.6"/>
<path d="M50.0586 3.1922L49.5059 3.19214V24.6072H50.0586" stroke="#6D6D6D" stroke-width="0.6"/>
<path d="M53.0508 3.1922L52.4981 3.19214V24.6072H53.0508" stroke="#6D6D6D" stroke-width="0.6"/>
<path d="M56.043 3.1922L55.4902 3.19214V24.6072H56.043" stroke="#6D6D6D" stroke-width="0.6"/>
<path d="M59.0371 3.1922L58.4844 3.19214V24.6072H59.0371" stroke="#6D6D6D" stroke-width="0.6"/>
<path d="M62.0273 3.1922L61.4746 3.19214V24.6072H62.0273" stroke="#6D6D6D" stroke-width="0.6"/>
<path d="M65.0234 3.1922L64.4707 3.19214V24.6072H65.0234" stroke="#6D6D6D" stroke-width="0.6"/>
<path d="M68.0156 3.1922L67.4629 3.19214V24.6072H68.0156" stroke="#6D6D6D" stroke-width="0.6"/>
<path d="M71.0078 3.1922L70.4551 3.19214V24.6072H71.0078" stroke="#6D6D6D" stroke-width="0.6"/>
<path d="M74.002 3.1922L73.4492 3.19214V24.6072H74.002" stroke="#6D6D6D" stroke-width="0.6"/>
<path d="M60.3099 31.9324L69.9322 31.9324L71.5888 33.2614H58.8809L60.3099 31.9324Z" fill="#6D6D6D"/>
<path d="M58.3897 38.5375C58.3897 34.5117 61.3627 31.248 65.1661 31.248C68.9696 31.248 71.9805 34.5117 71.9805 38.5375" stroke="white" stroke-width="0.6"/>
<path d="M57.2333 38.5374C57.2333 33.9364 60.6004 30.2065 65.1878 30.2065C69.7753 30.2065 73.0781 33.9364 73.0781 38.5374" stroke="white" stroke-width="0.8"/>
<ellipse rx="6.57578" ry="6.7755" transform="matrix(-1 0 0 1 65.1879 38.3573)" fill="#6D6D6D"/>
<path d="M60.126 38.5374C60.126 41.3415 62.3923 43.6136 65.1866 43.6136C67.981 43.6136 70.2473 41.3415 70.2473 38.5374C70.2473 35.7334 67.981 33.4612 65.1866 33.4612C62.3923 33.4612 60.126 35.7334 60.126 38.5374Z" stroke="#6D6D6D" stroke-width="0.4"/>
<ellipse rx="3.59397" ry="3.60461" transform="matrix(-1 0 0 1 65.1736 38.4972)" fill="white"/>
<ellipse cx="65.1545" cy="38.5375" rx="1.0432" ry="1.04629" fill="#6D6D6D"/>
<path d="M22.0226 38.5375C22.0226 34.5117 24.9955 31.248 28.7989 31.248C32.6024 31.248 35.6133 34.5117 35.6133 38.5375" stroke="white" stroke-width="0.6"/>
<path d="M20.8661 38.5374C20.8661 33.9364 24.2332 30.2065 28.8207 30.2065C33.4081 30.2065 36.7109 33.9364 36.7109 38.5374" stroke="white" stroke-width="0.8"/>
<ellipse rx="6.57578" ry="6.7755" transform="matrix(-1 0 0 1 28.8207 38.3573)" fill="#6D6D6D"/>
<path d="M23.7608 38.5374C23.7608 41.3415 26.0271 43.6136 28.8214 43.6136C31.6158 43.6136 33.882 41.3415 33.882 38.5374C33.882 35.7334 31.6158 33.4612 28.8214 33.4612C26.0271 33.4612 23.7608 35.7334 23.7608 38.5374Z" stroke="#6D6D6D" stroke-width="0.4"/>
<ellipse rx="3.59397" ry="3.60461" transform="matrix(-1 0 0 1 28.8064 38.4972)" fill="white"/>
<ellipse cx="28.7873" cy="38.5375" rx="1.0432" ry="1.04629" fill="#6D6D6D"/>
<path d="M5.14561 38.5375C5.14561 34.5117 8.11855 31.248 11.922 31.248C15.7254 31.248 18.7363 34.5117 18.7363 38.5375" stroke="white" stroke-width="0.6"/>
<path d="M3.98914 38.5374C3.98914 33.9364 7.35629 30.2065 11.9437 30.2065C16.5311 30.2065 19.834 33.9364 19.834 38.5374" stroke="white" stroke-width="0.8"/>
<ellipse rx="6.57579" ry="6.7755" transform="matrix(-1 0 0 1 11.9418 38.3573)" fill="#6D6D6D"/>
<path d="M6.88187 38.5374C6.88187 41.3415 9.14815 43.6136 11.9425 43.6136C14.7368 43.6136 17.0031 41.3415 17.0031 38.5374C17.0031 35.7334 14.7368 33.4612 11.9425 33.4612C9.14815 33.4612 6.88187 35.7334 6.88187 38.5374Z" stroke="#6D6D6D" stroke-width="0.4"/>
<ellipse rx="3.59397" ry="3.60461" transform="matrix(-1 0 0 1 11.9295 38.4972)" fill="white"/>
<ellipse cx="11.9104" cy="38.5375" rx="1.0432" ry="1.04629" fill="#6D6D6D"/>
<path d="M74.3082 30.7762H79.5216V38.7769H74.3082V30.7762Z" fill="white" stroke="#6D6D6D" stroke-width="0.8"/>
<path d="M85.2301 30.7845H90.4435V38.7852H85.2301V30.7845Z" fill="white" stroke="#6D6D6D" stroke-width="0.8"/>
<path d="M79.7594 30.7762H84.9727V38.7769H79.7594V30.7762Z" fill="white" stroke="#6D6D6D" stroke-width="0.8"/>
<path d="M73.7988 38.1521V30.2512H90.9324V39.3019" stroke="white" stroke-width="0.3"/>
</svg>
