<svg width="21" height="22" viewBox="0 0 21 22" fill="none" xmlns="http://www.w3.org/2000/svg">
<path opacity="0.4" d="M20.6807 19.172L15.5038 13.9738C16.8349 12.4461 17.5642 10.524 17.5642 8.52305C17.5642 3.84795 13.6245 0.0443115 8.7821 0.0443115C3.93973 0.0443115 0 3.84795 0 8.52305C0 13.1982 3.93973 17.0018 8.7821 17.0018C10.6 17.0018 12.3324 16.4724 13.8135 15.4675L19.0297 20.7052C19.2477 20.9238 19.5409 21.0443 19.8552 21.0443C20.1526 21.0443 20.4348 20.9348 20.649 20.7358C21.1042 20.3129 21.1187 19.6118 20.6807 19.172ZM8.7821 2.25616C12.3614 2.25616 15.2732 5.06741 15.2732 8.52305C15.2732 11.9787 12.3614 14.7899 8.7821 14.7899C5.20282 14.7899 2.29098 11.9787 2.29098 8.52305C2.29098 5.06741 5.20282 2.25616 8.7821 2.25616Z" fill="#767E85"/>
</svg>
