<svg width="66" height="57" viewBox="0 0 66 57" fill="none" xmlns="http://www.w3.org/2000/svg">
<path d="M49.2031 56.3594L41.293 52.0625C47.6732 44.3802 51.7096 37.8047 53.4023 32.3359C54.3138 29.3411 54.737 26.3464 54.6719 23.3516H40.9023V0.597656H66V18.4688C66 29.7318 62.0938 40.474 54.2812 50.6953C52.5885 52.9089 50.8958 54.7969 49.2031 56.3594ZM8.96875 56.3594L1.05859 52.0625C7.4388 44.3802 11.4753 37.8047 13.168 32.3359C14.0794 29.3411 14.5026 26.3464 14.4375 23.3516H0.667969V0.597656H25.7656V18.4688C25.7656 29.7318 21.8594 40.474 14.0469 50.6953C12.3542 52.9089 10.6615 54.7969 8.96875 56.3594Z" fill="#C4D6DD"/>
</svg>
