<svg width="66" height="57" viewBox="0 0 66 57" fill="none" xmlns="http://www.w3.org/2000/svg">
<path d="M16.7969 0.640625L24.707 4.9375C18.3268 12.6198 14.2904 19.1953 12.5977 24.6641C11.6862 27.6589 11.263 30.6536 11.3281 33.6484H25.0977V56.4023H0V38.5312C0 27.2682 3.90625 16.526 11.7188 6.30469C13.4115 4.09115 15.1042 2.20312 16.7969 0.640625ZM57.0312 0.640625L64.9414 4.9375C58.5612 12.6198 54.5247 19.1953 52.832 24.6641C51.9206 27.6589 51.4974 30.6536 51.5625 33.6484H65.332V56.4023H40.2344V38.5312C40.2344 27.2682 44.1406 16.526 51.9531 6.30469C53.6458 4.09115 55.3385 2.20312 57.0312 0.640625Z" fill="#C4D6DD"/>
</svg>
