<svg width="18" height="19" viewBox="0 0 18 19" fill="none" xmlns="http://www.w3.org/2000/svg">
<path d="M9.15 0.425C10.8 0.425 12.2917 0.808333 13.625 1.575C14.975 2.34167 16.0333 3.4 16.8 4.75C17.5667 6.08333 17.95 7.56667 17.95 9.2C17.95 10.8333 17.5583 12.3333 16.775 13.7C15.9917 15.05 14.925 16.1167 13.575 16.9C12.225 17.6833 10.7333 18.075 9.1 18.075C7.46667 18.075 5.975 17.6833 4.625 16.9C3.29167 16.1167 2.23333 15.05 1.45 13.7C0.683333 12.35 0.3 10.8667 0.3 9.25C0.3 7.63333 0.683333 6.15 1.45 4.8C2.23333 3.45 3.3 2.38333 4.65 1.6C6 0.816666 7.5 0.425 9.15 0.425ZM9.1 17.15C10.5667 17.15 11.9 16.8 13.1 16.1C14.3 15.3833 15.25 14.425 15.95 13.225C16.65 12.0083 17 10.6667 17 9.2C17 7.73333 16.6583 6.40833 15.975 5.225C15.2917 4.025 14.35 3.08333 13.15 2.4C11.9667 1.7 10.6333 1.35 9.15 1.35C7.66667 1.35 6.31667 1.7 5.1 2.4C3.9 3.1 2.95 4.05833 2.25 5.275C1.56667 6.475 1.225 7.8 1.225 9.25C1.225 10.7 1.56667 12.0333 2.25 13.25C2.95 14.45 3.9 15.4 5.1 16.1C6.3 16.8 7.63333 17.15 9.1 17.15ZM13.575 7.55C13.575 8.31667 13.375 8.975 12.975 9.525C12.5917 10.0583 12.0417 10.45 11.325 10.7L13.675 14.3H12.325L10.15 10.925C10.0167 10.9417 9.825 10.95 9.575 10.95H6.975V14.3H5.675V4.2H9.575C10.8083 4.2 11.7833 4.5 12.5 5.1C13.2167 5.7 13.575 6.51667 13.575 7.55ZM9.5 9.85C10.3833 9.85 11.0667 9.65 11.55 9.25C12.05 8.85 12.3 8.28333 12.3 7.55C12.3 6.83333 12.05 6.28333 11.55 5.9C11.0667 5.5 10.3833 5.3 9.5 5.3H6.95V9.85H9.5Z" fill="#222222"/>
</svg>
